<svg xmlns="http://www.w3.org/2000/svg" version="1" width="923" height="640"><defs><filter id="a" height="2.187" y="-.594" width="1.133" x="-.067"><feGaussianBlur stdDeviation="21.391"/></filter><filter id="b" height="1.781" y="-.391" width="1.142" x="-.071"><feGaussianBlur stdDeviation="6.375"/></filter></defs><path fill="#9a7e70" fill-opacity=".784" stroke="#000" stroke-width="2.5" d="M1.667 596.333h920v43.333h-920z"/><text style="text-align:center" y="625.398" x="454.766" font-size="24" text-anchor="middle" font-family="Arial"><tspan y="625.398" x="454.766"><tspan y="625.398" x="454.766">Hardware</tspan></tspan></text><path fill="#a490b4" fill-opacity=".784" stroke="#000" stroke-width="2.5" d="M1.667 540.333h920v43.333h-920z"/><text style="text-align:center" y="569.398" x="454.766" font-size="24" text-anchor="middle" font-family="Arial"><tspan y="569.398" x="454.766">Hyper-V Hypervisor</tspan></text><path fill="#d40000" fill-opacity=".498" stroke="#000" stroke-width="2.5" d="M1.667 37.667h291.667v405H1.667zm314 0h291.667v405H315.667zm314 0h291.667v405H629.667z"/><path transform="matrix(1 0 0 1.05036 627 -10.971)" fill="#bc2122" fill-opacity=".498" stroke="#000" stroke-width="2.439" d="M15 198h265v231.667H15z"/><text style="text-align:center" y="228.731" x="770.432" font-size="24" text-anchor="middle" fill="#ffe4e1" font-family="Arial"><tspan y="228.731" x="770.432">Kernel</tspan></text><path d="M304.333 14.333v450m314.2-450v450" fill="none" stroke="#000" stroke-width="2.5"/><text style="text-align:center" y="23.731" x="161.432" font-size="24" text-anchor="middle" font-family="Arial"><tspan y="23.731" x="161.432">Root Partition</tspan></text><text style="text-align:center" y="23.731" x="475.432" font-size="24" text-anchor="middle" font-family="Arial"><tspan y="23.731" x="475.432">Child Partition 1</tspan></text><text style="text-align:center" y="9.731" x="618.433" font-size="24" text-anchor="middle" font-family="Arial"><tspan y="9.731" x="618.433">... ... ...</tspan></text><text style="text-align:center" y="23.731" x="775.432" font-size="24" text-anchor="middle" font-family="Arial"><tspan y="23.731" x="775.432">Child Partition n</tspan></text><path d="M77 443.344v39h-.25v45h766.656v-45h-.75v-39H761v39H512.656v-39H431v39H158.656v-39H77z" fill="#44d4fc" fill-opacity=".686" stroke="#000" stroke-width="2.5" filter="url(#a)"/><path d="M77 443.344v39h-.25v45h766.656l.917-82.334L761 443.344v39H512.656v-39H431v39H158.656v-39H77z" fill-opacity=".498" stroke="#000" stroke-width="2.5"/><text style="text-align:center" y="511.398" x="470.766" font-size="24" text-anchor="middle" fill="#fff" font-family="Arial"><tspan y="511.398" x="470.766">VMBus</tspan></text><path transform="matrix(1.35156 0 0 2.9091 -60.406 -89.09)" fill="gold" fill-opacity=".498" stroke="#000" stroke-width="1.261" filter="url(#b)" d="M46.667 46.667H260v36.667H46.667z"/><path transform="matrix(1.33594 0 0 2.9091 255.656 -89.09)" fill="gold" fill-opacity=".498" stroke="#000" stroke-width="1.268" filter="url(#b)" d="M46.667 46.667H260v36.667H46.667z"/><path transform="matrix(1.33594 0 0 2.9091 569.99 -89.09)" fill="gold" fill-opacity=".498" stroke="#000" stroke-width="1.268" filter="url(#b)" d="M46.667 46.667H260v36.667H46.667z"/><text style="text-align:center" y="75.731" x="147.432" font-size="24" text-anchor="middle" fill="#fff" font-family="Arial"><tspan y="75.731" x="147.432">Hyper-V Aware</tspan><tspan y="105.731" x="147.432">Windows Server</tspan><tspan y="135.731" x="147.432">(Windows Server 2008)</tspan></text><text style="text-align:center" y="75.731" x="465.432" font-size="24" text-anchor="middle" fill="#fff" font-family="Arial"><tspan y="75.731" x="465.432">Hyper-V Aware</tspan><tspan y="105.731" x="465.432">Windows Client</tspan><tspan y="135.731" x="465.432">(Windows Vista)</tspan></text><text style="text-align:center" y="75.731" x="776.87" font-size="24" text-anchor="middle" fill="#fff" font-family="Arial"><tspan y="75.731" x="776.87">Hyper-V Aware</tspan><tspan y="105.731" x="776.87">Non-Windows OS</tspan><tspan y="135.731" x="776.87">(Linux with MS/XenSource)</tspan></text><path transform="matrix(1 0 0 1.05036 0 -9.971)" fill="#bc2122" fill-opacity=".498" stroke="#000" stroke-width="2.439" d="M15 198h265v231.667H15z"/><path fill="#adff2f" fill-opacity=".498" stroke="#000" stroke-width="2.5" d="M49.333 295H246v58.333H49.333z"/><text style="text-align:center" y="331.731" x="149.432" font-size="24" text-anchor="middle" font-family="Arial"><tspan y="331.731" x="149.432">Device Drivers</tspan></text><path fill="#adff2f" fill-opacity=".498" stroke="#000" stroke-width="2.5" d="M49.333 353H246v58.333H49.333z"/><text style="text-align:center" y="375.731" x="149.432" font-size="24" text-anchor="middle" font-family="Arial"><tspan y="375.731" x="149.432" font-size="20">Virtualization Service</tspan><tspan y="402.402" x="149.432" font-size="22">Provider (VSP)</tspan></text><path fill="#bc2122" fill-opacity=".498" stroke="#000" stroke-width="2.5" d="M328.667 195.667h265V439h-265z"/><path fill="#adff2f" fill-opacity=".498" stroke="#000" stroke-width="2.5" d="M361.333 295H558v58.333H361.333z"/><text style="text-align:center" y="227.398" x="461.099" font-size="24" text-anchor="middle" fill="#ffe4e1" font-family="Arial"><tspan y="227.398" x="461.099">Kernel</tspan></text><text style="text-align:center" y="331.731" x="461.432" font-size="24" text-anchor="middle" font-family="Arial"><tspan y="331.731" x="461.432">Device Drivers</tspan></text><text style="text-align:center" y="433.398" x="457.099" font-size="24" text-anchor="middle" fill="#ffe4e1" font-family="Arial"><tspan y="433.398" x="457.099">Hypercall API</tspan></text><path fill="#adff2f" fill-opacity=".498" stroke="#000" stroke-width="2.5" d="M361.333 353H558v58.333H361.333z"/><text style="text-align:center" y="434.731" x="772.432" font-size="24" text-anchor="middle" fill="#ffe4e1" font-family="Arial"><tspan y="434.731" x="772.432">Hypercall API</tspan></text><path fill="#adff2f" fill-opacity=".498" stroke="#000" stroke-width="2.5" d="M675.333 297H872v58.333H675.333z"/><text style="text-align:center" y="333.731" x="775.432" font-size="24" text-anchor="middle" font-family="Arial"><tspan y="333.731" x="775.432">Linux VSC</tspan></text><path fill="#adff2f" fill-opacity=".498" stroke="#000" stroke-width="2.5" d="M675.333 355H872v58.333H675.333z"/><text style="text-align:center" y="375.731" x="775.432" font-size="24" text-anchor="middle" font-family="Arial"><tspan y="375.731" x="775.432" font-size="22">Hypercall</tspan><tspan y="403.231" x="775.432" font-size="22">Adapter</tspan></text><path fill="#adff2f" fill-opacity=".498" stroke="#000" stroke-width="2.5" d="M675.333 239H872v58.333H675.333z"/><text style="text-align:center" y="277.731" x="775.432" font-size="24" text-anchor="middle" font-family="Arial"><tspan y="277.731" x="775.432">Device Drivers</tspan></text><text style="text-align:center" y="375.731" x="459.432" font-size="24" text-anchor="middle" font-family="Arial"><tspan y="375.731" x="459.432" font-size="20">Virtualization Service</tspan><tspan y="402.402" x="459.432" font-size="22">Client (VSC)</tspan></text><text style="text-align:center" y="229.731" x="149.432" font-size="24" text-anchor="middle" fill="#ffe4e1" font-family="Arial"><tspan y="229.731" x="149.432">Kernel</tspan></text><text style="text-align:center" y="435.731" x="145.432" font-size="24" text-anchor="middle" fill="#ffe4e1" font-family="Arial"><tspan y="435.731" x="145.432">Hypercall API</tspan></text></svg>